<svg width="360" height="480" viewBox="0 0 360 480" fill="none" xmlns="http://www.w3.org/2000/svg">
<path d="M184.061 279.038L184.061 279.068V279.099V284.222C184.061 288.434 183.003 291.639 181.274 293.718C179.639 295.686 177.035 297.097 172.843 297.097C168.465 297.097 165.674 295.72 163.938 293.81C162.148 291.841 161.023 288.799 161.023 284.673V275.181C161.023 250.781 176.807 234.199 200.286 217.898L200.296 217.891L200.306 217.884C219.607 204.313 234.7 191.199 234.7 167.452C234.7 153.06 228.366 141.228 218.056 133.087C207.82 125.005 193.824 120.662 178.418 120.662C165.634 120.662 153.931 123.506 144.328 130.419C134.708 137.343 127.607 148.055 123.5 163.021C122.547 166.103 121.085 168.317 119.317 169.755C117.574 171.173 115.287 172.041 112.274 172.041C108.592 172.041 106.188 170.862 104.679 169.235C103.129 167.563 102.111 164.968 102.111 161.426C102.111 156.299 103.333 149.922 106.283 143.32L106.287 143.31L106.292 143.3C118.32 115.989 146.629 100.487 179.473 100.487C201.58 100.487 221.233 106.764 235.275 118.197C249.233 129.56 257.889 146.197 257.889 167.603C257.889 194.783 242.703 213.912 217.456 231.04L217.446 231.047L217.435 231.054C205.401 239.327 197.034 245.878 191.728 253.117C186.24 260.604 184.22 268.534 184.061 279.038ZM190.238 362.118C190.238 371.679 182.519 379.513 172.843 379.513C163.264 379.513 155.298 371.624 155.298 362.118C155.298 352.478 163.245 344.723 172.843 344.723C182.537 344.723 190.238 352.424 190.238 362.118Z" stroke="black" stroke-width="8"/>
<rect x="4" y="4" width="352" height="472" rx="16" stroke="black" stroke-width="8"/>
</svg>
